<svg width="188" height="62" viewBox="0 0 188 62" fill="none" xmlns="http://www.w3.org/2000/svg">
<g filter="url(#filter0_d)">
<path d="M112.008 3.29536H115.943L111.002 25.3055H106.035L101.125 3.29536H105.061L107.801 16.7376C108.051 17.8806 108.534 20.5036 108.534 20.5036C108.534 20.5036 108.989 18.2027 109.294 16.7376L112.008 3.29536Z" fill="white"/>
<path d="M129.607 25.3053H120.147V3.29519H129.607V6.83432H124.051V12.0721H129.206V15.6226H124.051V21.7213H129.607V25.3053Z" fill="white"/>
<path d="M149.72 25.3053H144.952L138.626 9.76214C138.626 9.76214 138.636 11.8817 138.636 13.2755V25.3053H135.018V3.29519H139.814L146.137 18.8084C146.137 18.8084 146.131 16.7638 146.131 15.3094V3.29519H149.72V25.3053Z" fill="white"/>
<path d="M162.222 25.3053H158.332V6.89359H154.313V3.29519H166.243V6.89359H162.222V25.3053Z" fill="white"/>
<path d="M177.825 16.1208L176.708 11.004C176.64 10.6921 176.489 9.91373 176.255 8.66297C176.019 7.41341 175.83 6.53207 175.83 6.53207C175.83 6.53207 175.55 7.97263 175.357 9.01084C175.166 10.049 174.668 12.4176 173.864 16.1208H177.825ZM179.764 25.3054L178.56 19.7498H173.089L171.884 25.3054H167.976L173.175 3.20729H178.473L183.683 25.3054H179.764Z" fill="white"/>
<path d="M109.769 56.9998L105.892 38.7994C105.892 38.7994 105.89 41.0297 105.89 42.2325V56.9998H102.275V34.9938H108.275L111.864 52.2871H111.979L115.539 34.9938H121.628V56.9998H117.923V42.0823C117.923 40.8471 117.917 38.7257 117.917 38.7257L114.033 56.9998H109.769Z" fill="white"/>
<path d="M137.143 56.9998H127.684V34.9938H137.143V38.5288H131.588V43.7677H136.745V47.3212H131.588V53.4169H137.143V56.9998Z" fill="white"/>
<path d="M146.23 47.261V53.4166H148.199C149.012 53.4166 149.619 53.1567 150.014 52.6334C150.411 52.1137 150.609 51.3024 150.609 50.2127C150.609 48.2447 149.788 47.261 148.142 47.261H146.23ZM146.23 43.844H148.026C148.849 43.844 149.426 43.6135 149.761 43.1512C150.098 42.6914 150.266 42.0011 150.266 41.0874C150.266 40.1755 150.073 39.5217 149.692 39.1229C149.307 38.7272 148.704 38.529 147.883 38.529H146.23V43.844ZM142.555 34.9941H147.909C150.093 34.9941 151.683 35.4371 152.677 36.3263C153.673 37.2118 154.171 38.6248 154.171 40.5623C154.171 41.837 153.906 42.9028 153.38 43.7602C152.855 44.6181 152.135 45.1396 151.226 45.3175V45.4695C152.412 45.7827 153.272 46.3623 153.797 47.2143C154.322 48.0687 154.585 49.2021 154.585 50.6169C154.585 52.6131 154.077 54.1788 153.059 55.3062C152.037 56.4348 150.643 57 148.872 57H142.555V34.9941Z" fill="white"/>
<path d="M169.271 56.9998H159.811V34.9938H169.271V38.5288H163.716V43.7677H168.871V47.3212H163.716V53.4169H169.271V56.9998Z" fill="white"/>
<path d="M174.681 56.9998V34.9938H178.587V53.4169H184V56.9998H174.681Z" fill="white"/>
<path d="M34.2682 3.00007L27.0352 33.332L19.8028 3.00007H4L6.61505 15.3095H11.326L21.2671 56.9995H32.8033L45.6793 3.00007H34.2682Z" fill="white"/>
<path d="M86.1705 44.6906H81.4624L71.5213 3H59.984L52.8076 33.0973L48.8173 16.3656L42.8545 39.2199L47.0937 57H58.5203L65.7526 26.6704L72.985 57H88.7861L86.1705 44.6906Z" fill="white"/>
</g>
<defs>
<filter id="filter0_d" x="0" y="0" width="188" height="62" filterUnits="userSpaceOnUse" color-interpolation-filters="sRGB">
<feFlood flood-opacity="0" result="BackgroundImageFix"/>
<feColorMatrix in="SourceAlpha" type="matrix" values="0 0 0 0 0 0 0 0 0 0 0 0 0 0 0 0 0 0 127 0"/>
<feOffset dy="1"/>
<feGaussianBlur stdDeviation="2"/>
<feColorMatrix type="matrix" values="0 0 0 0 0 0 0 0 0 0 0 0 0 0 0 0 0 0 0.15 0"/>
<feBlend mode="normal" in2="BackgroundImageFix" result="effect1_dropShadow"/>
<feBlend mode="normal" in="SourceGraphic" in2="effect1_dropShadow" result="shape"/>
</filter>
</defs>
</svg>
